<svg width="1280" height="720" xmlns="http://www.w3.org/2000/svg" xmlns:xlink="http://www.w3.org/1999/xlink" overflow="hidden"><defs><filter id="fx0" x="-10%" y="-10%" width="120%" height="120%" filterUnits="userSpaceOnUse" primitiveUnits="userSpaceOnUse"><feComponentTransfer color-interpolation-filters="sRGB"><feFuncR type="discrete" tableValues="0 0"/><feFuncG type="discrete" tableValues="0 0"/><feFuncB type="discrete" tableValues="0 0"/><feFuncA type="linear" slope="0.4" intercept="0"/></feComponentTransfer><feGaussianBlur stdDeviation="1.77778 1.77778"/></filter><filter id="fx1" x="-10%" y="-10%" width="120%" height="120%" filterUnits="userSpaceOnUse" primitiveUnits="userSpaceOnUse"><feComponentTransfer color-interpolation-filters="sRGB"><feFuncR type="discrete" tableValues="0 0"/><feFuncG type="discrete" tableValues="0 0"/><feFuncB type="discrete" tableValues="0 0"/><feFuncA type="linear" slope="0.4" intercept="0"/></feComponentTransfer><feGaussianBlur stdDeviation="1.77778 1.77778"/></filter><filter id="fx2" x="-10%" y="-10%" width="120%" height="120%" filterUnits="userSpaceOnUse" primitiveUnits="userSpaceOnUse"><feComponentTransfer color-interpolation-filters="sRGB"><feFuncR type="discrete" tableValues="0 0"/><feFuncG type="discrete" tableValues="0 0"/><feFuncB type="discrete" tableValues="0 0"/><feFuncA type="linear" slope="0.4" intercept="0"/></feComponentTransfer><feGaussianBlur stdDeviation="1.77778 1.77778"/></filter><filter id="fx3" x="-10%" y="-10%" width="120%" height="120%" filterUnits="userSpaceOnUse" primitiveUnits="userSpaceOnUse"><feComponentTransfer color-interpolation-filters="sRGB"><feFuncR type="discrete" tableValues="0 0"/><feFuncG type="discrete" tableValues="0 0"/><feFuncB type="discrete" tableValues="0 0"/><feFuncA type="linear" slope="0.4" intercept="0"/></feComponentTransfer><feGaussianBlur stdDeviation="1.77778 1.77778"/></filter><filter id="fx4" x="-10%" y="-10%" width="120%" height="120%" filterUnits="userSpaceOnUse" primitiveUnits="userSpaceOnUse"><feComponentTransfer color-interpolation-filters="sRGB"><feFuncR type="discrete" tableValues="0 0"/><feFuncG type="discrete" tableValues="0 0"/><feFuncB type="discrete" tableValues="0 0"/><feFuncA type="linear" slope="0.4" intercept="0"/></feComponentTransfer><feGaussianBlur stdDeviation="1.77778 1.77778"/></filter><filter id="fx5" x="-10%" y="-10%" width="120%" height="120%" filterUnits="userSpaceOnUse" primitiveUnits="userSpaceOnUse"><feComponentTransfer color-interpolation-filters="sRGB"><feFuncR type="discrete" tableValues="0 0"/><feFuncG type="discrete" tableValues="0 0"/><feFuncB type="discrete" tableValues="0 0"/><feFuncA type="linear" slope="0.4" intercept="0"/></feComponentTransfer><feGaussianBlur stdDeviation="1.77778 1.77778"/></filter><filter id="fx6" x="-10%" y="-10%" width="120%" height="120%" filterUnits="userSpaceOnUse" primitiveUnits="userSpaceOnUse"><feComponentTransfer color-interpolation-filters="sRGB"><feFuncR type="discrete" tableValues="0 0"/><feFuncG type="discrete" tableValues="0 0"/><feFuncB type="discrete" tableValues="0 0"/><feFuncA type="linear" slope="0.4" intercept="0"/></feComponentTransfer><feGaussianBlur stdDeviation="1.77778 1.77778"/></filter><filter id="fx7" x="-10%" y="-10%" width="120%" height="120%" filterUnits="userSpaceOnUse" primitiveUnits="userSpaceOnUse"><feComponentTransfer color-interpolation-filters="sRGB"><feFuncR type="discrete" tableValues="0 0"/><feFuncG type="discrete" tableValues="0 0"/><feFuncB type="discrete" tableValues="0 0"/><feFuncA type="linear" slope="0.4" intercept="0"/></feComponentTransfer><feGaussianBlur stdDeviation="1.77778 1.77778"/></filter><filter id="fx8" x="-10%" y="-10%" width="120%" height="120%" filterUnits="userSpaceOnUse" primitiveUnits="userSpaceOnUse"><feComponentTransfer color-interpolation-filters="sRGB"><feFuncR type="discrete" tableValues="0 0"/><feFuncG type="discrete" tableValues="0 0"/><feFuncB type="discrete" tableValues="0 0"/><feFuncA type="linear" slope="0.4" intercept="0"/></feComponentTransfer><feGaussianBlur stdDeviation="1.77778 1.77778"/></filter><filter id="fx9" x="-10%" y="-10%" width="120%" height="120%" filterUnits="userSpaceOnUse" primitiveUnits="userSpaceOnUse"><feComponentTransfer color-interpolation-filters="sRGB"><feFuncR type="discrete" tableValues="0 0"/><feFuncG type="discrete" tableValues="0 0"/><feFuncB type="discrete" tableValues="0 0"/><feFuncA type="linear" slope="0.4" intercept="0"/></feComponentTransfer><feGaussianBlur stdDeviation="1.77778 1.77778"/></filter><filter id="fx10" x="-10%" y="-10%" width="120%" height="120%" filterUnits="userSpaceOnUse" primitiveUnits="userSpaceOnUse"><feComponentTransfer color-interpolation-filters="sRGB"><feFuncR type="discrete" tableValues="0 0"/><feFuncG type="discrete" tableValues="0 0"/><feFuncB type="discrete" tableValues="0 0"/><feFuncA type="linear" slope="0.4" intercept="0"/></feComponentTransfer><feGaussianBlur stdDeviation="1.77778 1.77778"/></filter><filter id="fx11" x="-10%" y="-10%" width="120%" height="120%" filterUnits="userSpaceOnUse" primitiveUnits="userSpaceOnUse"><feComponentTransfer color-interpolation-filters="sRGB"><feFuncR type="discrete" tableValues="0 0"/><feFuncG type="discrete" tableValues="0 0"/><feFuncB type="discrete" tableValues="0 0"/><feFuncA type="linear" slope="0.4" intercept="0"/></feComponentTransfer><feGaussianBlur stdDeviation="1.77778 1.77778"/></filter><filter id="fx12" x="-10%" y="-10%" width="120%" height="120%" filterUnits="userSpaceOnUse" primitiveUnits="userSpaceOnUse"><feComponentTransfer color-interpolation-filters="sRGB"><feFuncR type="discrete" tableValues="0 0"/><feFuncG type="discrete" tableValues="0 0"/><feFuncB type="discrete" tableValues="0 0"/><feFuncA type="linear" slope="0.4" intercept="0"/></feComponentTransfer><feGaussianBlur stdDeviation="1.77778 1.77778"/></filter><filter id="fx13" x="-10%" y="-10%" width="120%" height="120%" filterUnits="userSpaceOnUse" primitiveUnits="userSpaceOnUse"><feComponentTransfer color-interpolation-filters="sRGB"><feFuncR type="discrete" tableValues="0 0"/><feFuncG type="discrete" tableValues="0 0"/><feFuncB type="discrete" tableValues="0 0"/><feFuncA type="linear" slope="0.4" intercept="0"/></feComponentTransfer><feGaussianBlur stdDeviation="1.77778 1.77778"/></filter><filter id="fx14" x="-10%" y="-10%" width="120%" height="120%" filterUnits="userSpaceOnUse" primitiveUnits="userSpaceOnUse"><feComponentTransfer color-interpolation-filters="sRGB"><feFuncR type="discrete" tableValues="0 0"/><feFuncG type="discrete" tableValues="0 0"/><feFuncB type="discrete" tableValues="0 0"/><feFuncA type="linear" slope="0.4" intercept="0"/></feComponentTransfer><feGaussianBlur stdDeviation="1.77778 1.77778"/></filter><filter id="fx15" x="-10%" y="-10%" width="120%" height="120%" filterUnits="userSpaceOnUse" primitiveUnits="userSpaceOnUse"><feComponentTransfer color-interpolation-filters="sRGB"><feFuncR type="discrete" tableValues="0 0"/><feFuncG type="discrete" tableValues="0 0"/><feFuncB type="discrete" tableValues="0 0"/><feFuncA type="linear" slope="0.4" intercept="0"/></feComponentTransfer><feGaussianBlur stdDeviation="1.77778 1.77778"/></filter><clipPath id="clip16"><rect x="0" y="0" width="1280" height="720"/></clipPath></defs><g clip-path="url(#clip16)"><rect x="0" y="0" width="1280" height="720" fill="#C4BBAF"/><g filter="url(#fx0)" transform="translate(213 73)"><g><path d="M6.82843 25.3288C6.82843 15.1113 15.1113 6.82843 25.3288 6.82843L168.328 6.82843C178.546 6.82843 186.828 15.1113 186.828 25.3288L186.828 99.328C186.828 109.546 178.546 117.828 168.328 117.828L25.3288 117.828C15.1113 117.828 6.82843 109.546 6.82843 99.328Z" fill="#F7F7FF" fill-rule="evenodd"/></g></g><path d="M217 95.5004C217 85.2829 225.283 77 235.5 77L378.5 77C388.717 77 397 85.2829 397 95.5004L397 169.5C397 179.717 388.717 188 378.5 188L235.5 188C225.283 188 217 179.717 217 169.5Z" fill="#F7F7FF" fill-rule="evenodd"/><g filter="url(#fx1)" transform="translate(402 73)"><g><path d="M6.82843 25.3288C6.82843 15.1113 15.1113 6.82843 25.3288 6.82843L167.328 6.82843C177.546 6.82843 185.828 15.1113 185.828 25.3288L185.828 99.328C185.828 109.546 177.546 117.828 167.328 117.828L25.3288 117.828C15.1113 117.828 6.82843 109.546 6.82843 99.328Z" fill="#F7F7FF" fill-rule="evenodd"/></g></g><path d="M406 95.5004C406 85.2829 414.283 77 424.5 77L566.5 77C576.717 77 585 85.2829 585 95.5004L585 169.5C585 179.717 576.717 188 566.5 188L424.5 188C414.283 188 406 179.717 406 169.5Z" fill="#F7F7FF" fill-rule="evenodd"/><g filter="url(#fx2)" transform="translate(779 71)"><g><path d="M6.82843 31.9955C6.82843 18.0961 18.0961 6.82843 31.9955 6.82843L160.661 6.82843C174.561 6.82843 185.828 18.0961 185.828 31.9955L185.828 132.661C185.828 146.561 174.561 157.828 160.661 157.828L31.9955 157.828C18.0961 157.828 6.82843 146.561 6.82843 132.661Z" fill="#F7F7FF" fill-rule="evenodd"/></g></g><path d="M783 100.167C783 86.2677 794.268 75 808.167 75L936.833 75C950.732 75 962 86.2677 962 100.167L962 200.833C962 214.732 950.732 226 936.833 226L808.167 226C794.268 226 783 214.732 783 200.833Z" fill="#F7F7FF" fill-rule="evenodd"/><g filter="url(#fx3)" transform="translate(590 71)"><g><path d="M6.82843 31.9956C6.82843 18.0961 18.0961 6.82843 31.9956 6.82843L161.661 6.82843C175.561 6.82843 186.828 18.0961 186.828 31.9956L186.828 132.661C186.828 146.561 175.561 157.828 161.661 157.828L31.9956 157.828C18.0961 157.828 6.82843 146.561 6.82843 132.661Z" fill="#F7F7FF" fill-rule="evenodd"/></g></g><path d="M594 100.167C594 86.2677 605.268 75 619.167 75L748.833 75C762.732 75 774 86.2677 774 100.167L774 200.833C774 214.732 762.732 226 748.833 226L619.167 226C605.268 226 594 214.732 594 200.833Z" fill="#F7F7FF" fill-rule="evenodd"/><g filter="url(#fx4)" transform="translate(967 73)"><g><path d="M6.82843 32.1624C6.82843 18.1708 18.1708 6.82843 32.1624 6.82843L266.494 6.82843C280.486 6.82843 291.828 18.1708 291.828 32.1624L291.828 133.494C291.828 147.486 280.486 158.828 266.494 158.828L32.1624 158.828C18.1708 158.828 6.82843 147.486 6.82843 133.494Z" fill="#F7F7FF" fill-rule="evenodd"/></g></g><path d="M971 102.334C971 88.3424 982.342 77 996.334 77L1230.67 77C1244.66 77 1256 88.3424 1256 102.334L1256 203.666C1256 217.658 1244.66 229 1230.67 229L996.334 229C982.342 229 971 217.658 971 203.666Z" fill="#F7F7FF" fill-rule="evenodd"/><g filter="url(#fx5)" transform="translate(25 195)"><g><path d="M6.82843 46.3292C6.82843 24.5135 24.5135 6.82843 46.3292 6.82843L328.328 6.82843C350.143 6.82843 367.828 24.5135 367.828 46.3292L367.828 204.328C367.828 226.143 350.143 243.828 328.328 243.828L46.3292 243.828C24.5135 243.828 6.82843 226.143 6.82843 204.328Z" fill="#F7F7FF" fill-rule="evenodd"/></g></g><path d="M29 238.501C29 216.685 46.6851 199 68.5008 199L350.499 199C372.315 199 390 216.685 390 238.501L390 396.499C390 418.315 372.315 436 350.499 436L68.5008 436C46.6851 436 29 418.315 29 396.499Z" fill="#F7F7FF" fill-rule="evenodd"/><g filter="url(#fx6)" transform="translate(25 442)"><g><path d="M6.82843 50.9958C6.82843 26.6028 26.6028 6.82843 50.9958 6.82843L439.661 6.82843C464.054 6.82843 483.828 26.6028 483.828 50.9958L483.828 227.661C483.828 252.054 464.054 271.828 439.661 271.828L50.9958 271.828C26.6028 271.828 6.82843 252.054 6.82843 227.661Z" fill="#F7F7FF" fill-rule="evenodd"/></g></g><path d="M29 490.167C29 465.774 48.7744 446 73.1674 446L461.833 446C486.226 446 506 465.774 506 490.167L506 666.833C506 691.226 486.226 711 461.833 711L73.1674 711C48.7744 711 29 691.226 29 666.833Z" fill="#F7F7FF" fill-rule="evenodd"/><g filter="url(#fx7)" transform="translate(399 234)"><g><path d="M6.82843 39.6626C6.82843 21.5288 21.5288 6.82843 39.6625 6.82843L346.994 6.82843C365.128 6.82843 379.828 21.5288 379.828 39.6626L379.828 170.994C379.828 189.128 365.128 203.828 346.994 203.828L39.6625 203.828C21.5288 203.828 6.82843 189.128 6.82843 170.994Z" fill="#F7F7FF" fill-rule="evenodd"/></g></g><path d="M403 270.834C403 252.7 417.7 238 435.834 238L743.166 238C761.3 238 776 252.7 776 270.834L776 402.166C776 420.3 761.3 435 743.166 435L435.834 435C417.7 435 403 420.3 403 402.166Z" fill="#F7F7FF" fill-rule="evenodd"/><g filter="url(#fx8)" transform="translate(517 442)"><g><path d="M6.82843 50.9959C6.82843 26.6029 26.6029 6.82843 50.9959 6.82843L320.661 6.82843C345.054 6.82843 364.828 26.6029 364.828 50.9959L364.828 227.661C364.828 252.054 345.054 271.828 320.661 271.828L50.9959 271.828C26.6029 271.828 6.82843 252.054 6.82843 227.661Z" fill="#F7F7FF" fill-rule="evenodd"/></g></g><path d="M521 490.167C521 465.774 540.774 446 565.167 446L834.833 446C859.226 446 879 465.774 879 490.167L879 666.833C879 691.226 859.226 711 834.833 711L565.167 711C540.774 711 521 691.226 521 666.833Z" fill="#F7F7FF" fill-rule="evenodd"/><g filter="url(#fx9)" transform="translate(1037 235)"><g><path d="M6.82837 39.4957C6.82837 21.4541 21.454 6.82843 39.4956 6.82843L194.161 6.82843C212.203 6.82843 226.828 21.4541 226.828 39.4957L226.828 170.161C226.828 188.203 212.203 202.828 194.161 202.828L39.4956 202.828C21.454 202.828 6.82837 188.203 6.82837 170.161Z" fill="#F7F7FF" fill-rule="evenodd"/></g></g><path d="M1041 271.667C1041 253.626 1055.63 239 1073.67 239L1228.33 239C1246.37 239 1261 253.626 1261 271.667L1261 402.333C1261 420.374 1246.37 435 1228.33 435L1073.67 435C1055.63 435 1041 420.374 1041 402.333Z" fill="#F7F7FF" fill-rule="evenodd"/><g filter="url(#fx10)" transform="translate(899 441)"><g><path d="M6.82843 51.1627C6.82843 26.6775 26.6775 6.82843 51.1626 6.82843L320.494 6.82843C344.979 6.82843 364.828 26.6775 364.828 51.1627L364.828 228.494C364.828 252.979 344.979 272.828 320.494 272.828L51.1626 272.828C26.6775 272.828 6.82843 252.979 6.82843 228.494Z" fill="#F7F7FF" fill-rule="evenodd"/></g></g><path d="M903 489.334C903 464.849 922.849 445 947.334 445L1216.67 445C1241.15 445 1261 464.849 1261 489.334L1261 666.666C1261 691.151 1241.15 711 1216.67 711L947.334 711C922.849 711 903 691.151 903 666.666Z" fill="#F7F7FF" fill-rule="evenodd"/><path d="M32.0003 0 652 0 652 32.0004C652 49.6737 637.673 64.0007 620 64.0007L0 64 0 32.0004C-5.18802e-15 14.327 14.327-5.18802e-15 32.0003-1.0376e-14Z" fill="#120309" fill-rule="evenodd" transform="matrix(1 0 0 -1 630 63)"/><path d="M32.0002 0 641 0 641 32.0004C641 49.6737 626.673 64.0007 609 64.0007L0 64 0 32.0004C0 14.327 14.327-1.0201e-14 32.0002-1.0201e-14Z" fill="#F7F7FF" fill-rule="evenodd" transform="matrix(1 0 0 -1 640 63)"/><g filter="url(#fx11)" transform="translate(648 -5)"><g><path d="M32.0003 0 629 0 629 32.0003C629 49.6736 614.673 64.0007 597 64.0007L0 64 0 32.0003C-5.00501e-15 14.327 14.327-5.00501e-15 32.0003-1.001e-14Z" fill="#70163C" fill-rule="evenodd" transform="matrix(1 0 0 -1 6.82843 70.8284)"/></g></g><path d="M32.0003 0 629 0 629 32.0003C629 49.6736 614.673 64.0007 597 64.0007L0 64 0 32.0003C-5.00501e-15 14.327 14.327-5.00501e-15 32.0003-1.001e-14Z" fill="#70163C" fill-rule="evenodd" transform="matrix(1 0 0 -1 652 63)"/><rect x="1222" y="-1" width="59" height="37" fill="#70163C"/><g filter="url(#fx12)" transform="translate(24 74)"><g><path d="M6.82843 25.3288C6.82843 15.1113 15.1113 6.82843 25.3288 6.82843L168.328 6.82843C178.546 6.82843 186.828 15.1113 186.828 25.3288L186.828 99.328C186.828 109.546 178.546 117.828 168.328 117.828L25.3288 117.828C15.1113 117.828 6.82843 109.546 6.82843 99.328Z" fill="#F7F7FF" fill-rule="evenodd"/></g></g><path d="M28 96.5004C28 86.2829 36.2829 78 46.5004 78L189.5 78C199.717 78 208 86.2829 208 96.5004L208 170.5C208 180.717 199.717 189 189.5 189L46.5004 189C36.2829 189 28 180.717 28 170.5Z" fill="#F7F7FF" fill-rule="evenodd"/><g filter="url(#fx13)" transform="translate(784 235)"><g><path d="M6.82843 39.6626C6.82843 21.5288 21.5288 6.82843 39.6626 6.82843L213.994 6.82843C232.128 6.82843 246.828 21.5288 246.828 39.6626L246.828 170.994C246.828 189.128 232.128 203.828 213.994 203.828L39.6626 203.828C21.5288 203.828 6.82843 189.128 6.82843 170.994Z" fill="#F7F7FF" fill-rule="evenodd"/></g></g><path d="M788 271.834C788 253.7 802.7 239 820.834 239L995.166 239C1013.3 239 1028 253.7 1028 271.834L1028 403.166C1028 421.3 1013.3 436 995.166 436L820.834 436C802.7 436 788 421.3 788 403.166Z" fill="#F7F7FF" fill-rule="evenodd"/><g filter="url(#fx14)" transform="translate(24 9)"><g><path d="M6.82843 26.6049C6.82843 15.6826 15.6826 6.82843 26.6048 6.82843L152.052 6.82843C162.974 6.82843 171.828 15.6826 171.828 26.6049L171.828 37.052C171.828 47.9742 162.974 56.8284 152.052 56.8284L26.6048 56.8284C15.6826 56.8284 6.82843 47.9742 6.82843 37.052Z" fill="#70163C" fill-rule="evenodd"/></g></g><path d="M28 32.7764C28 21.8542 36.8542 13 47.7764 13L173.224 13C184.146 13 193 21.8542 193 32.7764L193 43.2236C193 54.1458 184.146 63 173.224 63L47.7764 63C36.8542 63 28 54.1458 28 43.2236Z" fill="#70163C" fill-rule="evenodd"/><g filter="url(#fx15)" transform="translate(31 16)"><g><path d="M6.82843 21.8585C6.82843 13.5576 13.5576 6.82843 21.8585 6.82843L148.798 6.82843C157.099 6.82843 163.828 13.5576 163.828 21.8585L163.828 29.7983C163.828 38.0992 157.099 44.8284 148.798 44.8284L21.8585 44.8284C13.5576 44.8284 6.82843 38.0992 6.82843 29.7983Z" fill="#F7F7FF" fill-rule="evenodd"/></g></g><path d="M35 35.0301C35 26.7292 41.7292 20 50.03 20L176.97 20C185.271 20 192 26.7292 192 35.0301L192 42.9699C192 51.2708 185.271 58 176.97 58L50.03 58C41.7292 58 35 51.2708 35 42.9699Z" fill="#F7F7FF" fill-rule="evenodd"/></g></svg>